HIERARCHY
ROOT pelvis
{
  OFFSET 0 100 0
  CHANNELS 6 Xposition Yposition Zposition Zrotation Xrotation Yrotation
  JOINT pelvis_right_femur
  {
    OFFSET -10.78128 -3.44521 -0.5502486
    CHANNELS 3 Zrotation Xrotation Yrotation
    JOINT right_femur_tibia
    {
      OFFSET -0.8047443 -44.0398 -0.1307829
      CHANNELS 3 Zrotation Xrotation Yrotation
      JOINT right_tibia_foot
      {
        OFFSET 3.006224 -47.83518 -5
        CHANNELS 3 Zrotation Xrotation Yrotation
        End Site
        {
          OFFSET 0 -5 15
        }
      }
    }
  }
  JOINT pelvis_left_femur
  {
    OFFSET 10.78128 -3.44521 -0.5502486
    CHANNELS 3 Zrotation Xrotation Yrotation
    JOINT left_femur_tibia
    {
      OFFSET 0.8047443 -44.0398 -0.1307829
      CHANNELS 3 Zrotation Xrotation Yrotation
      JOINT left_tibia_foot
      {
        OFFSET -4.370144 -48.10324 -4.275266
        CHANNELS 3 Zrotation Xrotation Yrotation
        End Site
        {
          OFFSET 0 -5 15
        }
      }
    }
  }
  JOINT pelvis_spine1
  {
    OFFSET 0 6.468898 -3.129235
    CHANNELS 3 Zrotation Xrotation Yrotation
    JOINT spine1
    {
      OFFSET 0 23.15396 4.99043
      CHANNELS 3 Zrotation Xrotation Yrotation
      JOINT spine2
      {
        OFFSET 0 20.79997 -5.064912
        CHANNELS 3 Zrotation Xrotation Yrotation
        JOINT neck
        {
          OFFSET 0 14.38658 9.616178
          CHANNELS 3 Zrotation Xrotation Yrotation
          End Site
          {
            OFFSET 0 20 0
          }
        }
      }
      JOINT right_manubrium
      {
        OFFSET -5.722621 16.35077 3.967754
        CHANNELS 3 Zrotation Xrotation Yrotation
        JOINT right_clavicle
        {
          OFFSET -13.16364 1.694482 -4.693211
          CHANNELS 3 Zrotation Xrotation Yrotation
          JOINT right_humerus
          {
            OFFSET -28.5034 -0.3100689 -2.792744
            CHANNELS 3 Zrotation Xrotation Yrotation
            JOINT right_radius
            {
              OFFSET -25.15693 0.02248979 -1.271978
              CHANNELS 3 Zrotation Xrotation Yrotation
              End Site
              {
                OFFSET -15 0 0
              }
            }
          }
        }
      }
      JOINT left_manubrium
      {
        OFFSET 5.722621 16.35077 3.967754
        CHANNELS 3 Zrotation Xrotation Yrotation
        JOINT left_clavicle
        {
          OFFSET 13.16364 1.694482 -4.693211
          CHANNELS 3 Zrotation Xrotation Yrotation
          JOINT left_humerus
          {
            OFFSET 29.39168 -1.063119 -2.237045
            CHANNELS 3 Zrotation Xrotation Yrotation
            JOINT left_radius
            {
              OFFSET 24.59957 -0.9528479 0.9047498
              CHANNELS 3 Zrotation Xrotation Yrotation
              End Site
              {
                OFFSET 15 -0 -0
              }
            }
          }
        }
      }
    }
  }
}
MOTION
Frames: 11
Frame Time: 0.0416666666667
32.69869 103.4559 249.2774 1.920597 -8.453225 -5.936411 -0.6183575 24.5385 8.526409 -0 14.96251 -0 7.668724 -15.77546 0.8285294 -0.2556902 -27.58365 -5.746192 -0 26.2775 -0 -7.7947 -5.659569 19.99671 -1.249083 -0.5702823 9.900723 -2.024388 9.818573 -1.927899 2.461244 21.66822 5.034343 1.714119 -14.7314 7.081556 1.139144 -22.11859 11.55351 79.51933 21.90781 -3.603328 -0 0 28.12351 -25.82834 13.95272 13.90031 4.767533 -13.80667 -2.628509 -93.91287 21.31083 26.49502 0 0 -11.09975 -2.992164 6.850294 16.23213
33.41036 102.8302 256.558 2.14235 -8.252461 -6.248525 -1.705047 25.08819 8.355827 -0 20.58703 -0 8.530847 -14.01343 0.6699246 -1.682106 -25.9596 -7.097871 -0 25.27663 -0 -7.822413 -5.79526 19.43091 -1.606072 -1.231647 9.868132 -2.181571 9.368179 -1.906505 2.608601 21.69032 4.998632 1.597747 -14.74226 7.32393 1.03541 -21.77931 11.13657 79.83406 21.63379 -3.514123 -0 0 27.93432 -25.80351 13.77553 13.85866 4.510318 -12.93262 -2.656016 -93.99291 21.63643 26.86206 0 0 -9.794244 -3.311341 6.845517 16.78473
34.12393 102.7575 264.0996 2.473684 -8.266317 -6.252562 -2.805006 24.51939 7.914397 -0 27.5046 -0 9.188546 -11.53518 0.0003726685 -3.282041 -22.98018 -8.409115 -0 25.64177 -0 -7.809855 -6.070648 18.86369 -2.106891 -1.919973 9.733005 -2.233192 9.065114 -1.932474 2.729727 21.84948 4.987427 1.478224 -14.67414 7.578037 1.17335 -20.97123 10.73873 80.5453 21.59981 -4.228694 -0 0 26.71629 -25.57119 13.69448 13.5568 4.286344 -12.36485 -2.722656 -93.68414 22.05353 26.50147 0 0 -9.039182 -3.489306 6.928328 17.1267
34.79341 103.3229 271.533 2.783498 -8.584413 -5.798479 -3.56441 22.39985 7.121414 -0 35.48063 -0 9.559987 -9.02885 -1.179345 -4.791648 -18.92004 -9.477221 -0 26.3128 -0 -7.670258 -6.829932 18.28692 -2.603128 -2.268921 9.330076 -2.202788 8.917083 -2.024184 2.77386 22.15215 5.016842 1.319186 -14.53432 7.830728 1.537242 -19.87135 10.45253 81.57559 21.8096 -5.549521 -0 0 24.63758 -25.1113 13.71127 13.01763 4.095442 -12.25811 -2.842097 -92.86076 22.56306 25.27227 0 0 -8.958659 -3.462403 7.119553 17.16888
35.41026 104.4115 278.6039 2.973243 -9.170461 -4.945741 -3.691097 18.35817 6.081405 -0 43.58309 -0 9.618338 -7.183145 -2.733861 -5.991102 -13.89953 -10.24014 -0 26.51006 -0 -7.401876 -8.073814 17.67857 -2.936574 -2.100186 8.539139 -2.115118 8.884255 -2.246884 2.690837 22.57108 5.119272 1.089219 -14.31413 8.082442 2.019182 -18.70676 10.3058 82.83926 22.22687 -7.206493 -0 0 22.09726 -24.43881 13.80218 12.33989 3.931382 -12.62425 -3.037519 -91.51959 23.12592 23.1532 0 0 -9.529944 -3.202288 7.419158 16.89842
35.97276 105.8416 285.1896 2.970759 -9.817581 -3.868749 -3.295064 12.59312 4.937383 -0 49.9718 -0 9.368488 -6.318114 -4.309959 -6.698567 -8.27318 -10.70219 -0 25.84701 -0 -7.13384 -9.489421 17.03699 -3.044282 -1.543084 7.386448 -1.942088 8.885412 -2.662076 2.521791 23.06867 5.284377 0.8128866 -14.00826 8.348944 2.4379 -17.59778 10.22517 84.27547 22.75811 -9.017378 -0 0 19.53568 -23.61169 13.91813 11.64004 3.846071 -13.33464 -3.315803 -89.80233 23.67071 20.28396 0 0 -10.66348 -2.73415 7.813458 16.35295
36.47666 107.3763 291.2808 2.790654 -10.27786 -2.70555 -2.660031 5.741043 3.854723 -0 52.98512 -0 8.811122 -6.295755 -5.601473 -6.887521 -2.527828 -10.95656 -0 24.25866 -0 -6.980164 -10.80453 16.34206 -2.968387 -0.8664994 5.995822 -1.660092 8.828221 -3.30624 2.355931 23.5878 5.467084 0.5429044 -13.63191 8.638582 2.605914 -16.56289 10.08732 85.81738 23.29046 -10.89348 -0 0 17.28103 -22.7059 14.00155 11.00458 3.918957 -14.22902 -3.650863 -87.88985 24.133 16.87575 0 0 -12.27182 -2.107221 8.285196 15.57386
36.92927 108.6636 296.9815 2.612475 -10.34193 -1.421803 -2.081206 -1.21122 3.023023 -0 51.91732 -0 7.960052 -6.471235 -6.53439 -6.759934 2.823285 -11.15433 -0 22.01761 -0 -6.939729 -12.03193 15.54121 -2.872451 -0.3586991 4.571171 -1.296924 8.630276 -4.171654 2.296919 24.0368 5.591808 0.3401561 -13.23637 8.929847 2.3773 -15.52936 9.754397 87.3605 23.71449 -12.83021 -0 0 15.44756 -21.79899 13.99401 10.45588 4.229437 -15.18321 -3.972367 -85.92904 24.47845 13.15774 0 0 -14.29634 -1.376037 8.819695 14.5798
37.33299 109.4056 302.5137 2.56072 -10.01982 -0.0002131489 -1.790209 -7.646335 2.504376 -0 47.11603 -0 6.872229 -6.597317 -7.23005 -6.517173 7.601645 -11.34416 -0 19.61985 -0 -6.947632 -13.30658 14.6519 -2.898786 -0.08303945 3.276641 -0.8874252 8.290481 -5.161669 2.388372 24.35184 5.590177 0.2351458 -12.88694 9.163017 1.816396 -14.4558 9.24936 88.76793 23.99152 -14.79815 -0 0 13.90686 -20.92015 13.87986 9.93617 4.764615 -16.16388 -4.235793 -83.99604 24.70269 9.319719 0 0 -16.62868 -0.5686944 9.40523 13.38812
37.67967 109.4592 308.1075 2.675214 -9.434967 1.455823 -1.890095 -13.2405 2.215454 -0 39.55745 -0 5.610101 -6.746443 -7.832536 -6.309385 11.81013 -11.49475 -0 17.59338 -0 -6.947072 -14.72232 13.73379 -3.108501 0.01750776 2.238109 -0.4693735 7.858812 -6.113085 2.614513 24.50608 5.4342 0.2274553 -12.64327 9.283267 1.099608 -13.33239 8.695851 89.94549 24.13946 -16.74138 -0 0 12.43906 -20.05501 13.67538 9.357003 5.450843 -17.16714 -4.407177 -82.1513 24.81034 5.538559 0 0 -19.11679 0.3043902 10.02782 12.03566
37.94294 108.856 313.8222 2.914122 -8.749204 2.731402 -2.257624 -17.83217 1.937899 -0 30.7537 -0 4.22574 -7.16903 -8.397987 -6.211061 15.48885 -11.53305 -0 16.40452 -0 -6.935166 -16.21256 12.86471 -3.440651 0.03370928 1.551954 -0.08690264 7.413379 -6.807343 2.898029 24.5187 5.163858 0.2829414 -12.54708 9.274908 0.4500848 -12.18012 8.270999 90.89976 24.21632 -18.57562 -0 0 10.83232 -19.14734 13.4226 8.633312 6.171818 -18.17114 -4.444353 -80.49018 24.80561 2.022287 0 0 -21.55272 1.237564 10.66538 10.60064
